<svg xmlns="http://www.w3.org/2000/svg" width="20.55" height="27.4" viewBox="0 0 20.55 27.4">
  <path id="Icon_awesome-file-image" data-name="Icon awesome-file-image" d="M20.55,6.526V6.85H13.7V0h.324a1.284,1.284,0,0,1,.908.376l5.241,5.241A1.284,1.284,0,0,1,20.55,6.526ZM13.272,8.563a1.288,1.288,0,0,1-1.284-1.284V0H1.284A1.284,1.284,0,0,0,0,1.284V26.116A1.284,1.284,0,0,0,1.284,27.4H19.266a1.284,1.284,0,0,0,1.284-1.284V8.563Zm-7.249.856a2.569,2.569,0,1,1-2.569,2.569A2.569,2.569,0,0,1,6.023,9.419ZM17.154,22.263H3.454l.026-2.595,2.115-2.115a.612.612,0,0,1,.882.026l2.115,2.115,5.54-5.54a.642.642,0,0,1,.908,0l2.115,2.115Z"/>
</svg>
