<svg xmlns="http://www.w3.org/2000/svg" width="57" height="57" viewBox="0 0 57 57">
  <circle id="Ellipse_3" data-name="Ellipse 3" cx="28.5" cy="28.5" r="28.5" fill="#464655"/>
  <path id="Path_42" data-name="Path 42" d="M143.52,1176.8H153.2a13.577,13.577,0,0,1,5.968,1.26,9.44,9.44,0,0,1,4.037,3.567,10.933,10.933,0,0,1,0,10.824,9.439,9.439,0,0,1-4.037,3.567,13.577,13.577,0,0,1-5.968,1.26H143.52Zm9.449,15.854a5.9,5.9,0,0,0,4.213-1.487,6.1,6.1,0,0,0,0-8.256,5.9,5.9,0,0,0-4.213-1.487h-3.657v11.23Z" transform="translate(-124.895 -1158.42)" fill="#deefb7"/>
</svg>
