<svg xmlns="http://www.w3.org/2000/svg" width="37" height="37" viewBox="0 0 37 37">
  <path id="Icon_awesome-share-alt-square" data-name="Icon awesome-share-alt-square" d="M37,6.214V35.286a3.964,3.964,0,0,1-3.964,3.964H3.964A3.964,3.964,0,0,1,0,35.286V6.214A3.964,3.964,0,0,1,3.964,2.25H33.036A3.964,3.964,0,0,1,37,6.214ZM25.107,24.054a4.608,4.608,0,0,0-3.12,1.212L16.374,21.9a4.653,4.653,0,0,0,0-2.3l5.613-3.368a4.612,4.612,0,1,0-1.361-2.266l-5.613,3.368a4.625,4.625,0,1,0,0,6.827l5.613,3.368a4.626,4.626,0,1,0,4.481-3.477Z" transform="translate(0 -2.25)"/>
</svg>

